<svg width="128" height="128" viewBox="0 0 128 128" fill="none" xmlns="http://www.w3.org/2000/svg">
  <defs>
    <linearGradient id="bizflowLogoGradient" x1="20" y1="16" x2="108" y2="112" gradientUnits="userSpaceOnUse">
      <stop stop-color="#22C55E"/>
      <stop offset="1" stop-color="#10B981"/>
    </linearGradient>
    <linearGradient id="bizflowLogoHighlight" x1="28" y1="20" x2="92" y2="88" gradientUnits="userSpaceOnUse">
      <stop stop-color="white" stop-opacity="0.3"/>
      <stop offset="1" stop-color="white" stop-opacity="0"/>
    </linearGradient>
    <filter id="bizflowLogoGlow" x="0" y="0" width="128" height="128" filterUnits="userSpaceOnUse" color-interpolation-filters="sRGB">
      <feFlood flood-opacity="0" result="BackgroundImageFix"/>
      <feColorMatrix in="SourceAlpha" type="matrix" values="0 0 0 0 0 0 0 0 0 0 0 0 0 0 0 0 0 0 127 0" result="hardAlpha"/>
      <feOffset dy="10"/>
      <feGaussianBlur stdDeviation="10"/>
      <feComposite in2="hardAlpha" operator="out"/>
      <feColorMatrix type="matrix" values="0 0 0 0 0.0627451 0 0 0 0 0.72549 0 0 0 0 0.505882 0 0 0 0.35 0"/>
      <feBlend mode="normal" in2="BackgroundImageFix" result="effect1_dropShadow_0_1"/>
      <feBlend mode="normal" in="SourceGraphic" in2="effect1_dropShadow_0_1" result="shape"/>
    </filter>
  </defs>
  <g filter="url(#bizflowLogoGlow)">
    <rect x="16" y="12" width="96" height="104" rx="28" fill="url(#bizflowLogoGradient)"/>
    <rect x="18" y="14" width="92" height="100" rx="26" fill="url(#bizflowLogoHighlight)"/>
    <path d="M43 39H65.5C75.165 39 83 46.835 83 56.5C83 66.165 75.165 74 65.5 74H43V39Z" fill="white" fill-opacity="0.18"/>
    <path d="M43 74H67C76.1127 74 83.5 81.3873 83.5 90.5C83.5 99.6127 76.1127 107 67 107H43V74Z" fill="white" fill-opacity="0.18"/>
    <path d="M44 34H68C78.4934 34 87 42.5066 87 53C87 59.0304 84.0528 64.5117 79.4234 67.9568C84.7856 71.2244 88.375 77.1246 88.375 83.875C88.375 94.1583 80.0333 102.5 69.75 102.5H44V34ZM57.5 46.625V62H67C71.6254 62 75.375 58.2504 75.375 53.625C75.375 48.9996 71.6254 45.25 67 45.25H57.5V46.625ZM57.5 74.625V90.875H68.375C73.0004 90.875 76.75 87.1254 76.75 82.5C76.75 77.8746 73.0004 74.125 68.375 74.125H57.5V74.625Z" fill="white"/>
    <path d="M61.5 34H92V45.5H74.75V61.25H90V72.5H74.75V102.5H61.5V34Z" fill="white"/>
  </g>
</svg>
