<svg width="1200" height="630" viewBox="0 0 1200 630" fill="none" xmlns="http://www.w3.org/2000/svg">
  <rect width="1200" height="630" rx="40" fill="#F8FAFC"/>
  <rect width="1200" height="630" rx="40" fill="url(#bg)"/>
  <circle cx="1060" cy="96" r="180" fill="#1A56DB" fill-opacity="0.14"/>
  <circle cx="138" cy="560" r="220" fill="#F59E0B" fill-opacity="0.12"/>
  <rect x="72" y="64" width="1056" height="502" rx="32" fill="white" fill-opacity="0.92"/>
  <rect x="112" y="110" width="88" height="88" rx="24" fill="url(#logo)"/>
  <text x="224" y="155" fill="#0F172A" font-family="Inter, Arial, sans-serif" font-size="44" font-weight="800">BizFlow NG</text>
  <text x="112" y="258" fill="#0F172A" font-family="Inter, Arial, sans-serif" font-size="66" font-weight="800">Business Management</text>
  <text x="112" y="334" fill="#0F172A" font-family="Inter, Arial, sans-serif" font-size="66" font-weight="800">Software for Nigerian SMEs</text>
  <text x="112" y="402" fill="#475569" font-family="Inter, Arial, sans-serif" font-size="28" font-weight="500">Invoicing, payroll, HR, and client management built for businesses</text>
  <text x="112" y="442" fill="#475569" font-family="Inter, Arial, sans-serif" font-size="28" font-weight="500">that want to get paid faster and run smarter.</text>

  <rect x="736" y="148" width="320" height="120" rx="24" fill="#EEF4FF"/>
  <rect x="768" y="182" width="112" height="18" rx="9" fill="#1A56DB" fill-opacity="0.22"/>
  <rect x="768" y="214" width="212" height="14" rx="7" fill="#94A3B8" fill-opacity="0.28"/>
  <text x="768" y="250" fill="#0F172A" font-family="Inter, Arial, sans-serif" font-size="26" font-weight="700">₦2.4B processed</text>

  <rect x="692" y="300" width="364" height="196" rx="28" fill="#0F172A"/>
  <rect x="722" y="334" width="108" height="14" rx="7" fill="#F8FAFC" fill-opacity="0.36"/>
  <rect x="722" y="364" width="84" height="66" rx="20" fill="#1A56DB"/>
  <rect x="822" y="386" width="84" height="44" rx="20" fill="#F59E0B"/>
  <rect x="922" y="348" width="84" height="82" rx="20" fill="#10B981"/>
  <path d="M722 464C760 426.667 798 444 836 406C874 368 912 384.667 950 346C988 307.333 1026 332 1064 298" stroke="#F8FAFC" stroke-width="10" stroke-linecap="round"/>
  <text x="722" y="524" fill="#F8FAFC" font-family="Inter, Arial, sans-serif" font-size="28" font-weight="700">Invoices • Payroll • HR • Clients</text>

  <defs>
    <linearGradient id="bg" x1="88" y1="54" x2="1124" y2="594" gradientUnits="userSpaceOnUse">
      <stop stop-color="#EAF1FF"/>
      <stop offset="1" stop-color="#FFF7E6"/>
    </linearGradient>
    <linearGradient id="logo" x1="112" y1="110" x2="200" y2="198" gradientUnits="userSpaceOnUse">
      <stop stop-color="#1A56DB"/>
      <stop offset="1" stop-color="#1341B0"/>
    </linearGradient>
  </defs>
</svg>
